<mxfile host="app.diagrams.net" modified="2021-04-16T11:59:43.273Z" agent="5.0 (Windows NT 10.0; Win64; x64) AppleWebKit/537.36 (KHTML, like Gecko) Chrome/88.0.4324.104 Safari/537.36" etag="HvTTyf7IAbgSdWAGE_p3" version="14.6.0" type="github">
  <diagram id="axH4MaEiU45yguKBD32-" name="第 1 页">
    <mxGraphModel dx="2567" dy="1190" grid="1" gridSize="10" guides="1" tooltips="1" connect="1" arrows="1" fold="1" page="1" pageScale="1" pageWidth="827" pageHeight="1169" math="0" shadow="0">
      <root>
        <mxCell id="0" />
        <mxCell id="1" parent="0" />
        <mxCell id="p7GltXDF2MTSe1q1npau-46" style="edgeStyle=orthogonalEdgeStyle;curved=1;rounded=0;orthogonalLoop=1;jettySize=auto;html=1;exitX=0.5;exitY=1;exitDx=0;exitDy=0;" edge="1" parent="1" source="p7GltXDF2MTSe1q1npau-48" target="p7GltXDF2MTSe1q1npau-49">
          <mxGeometry relative="1" as="geometry" />
        </mxCell>
        <mxCell id="p7GltXDF2MTSe1q1npau-47" style="edgeStyle=orthogonalEdgeStyle;curved=1;rounded=0;orthogonalLoop=1;jettySize=auto;html=1;exitX=0.5;exitY=1;exitDx=0;exitDy=0;entryX=0.5;entryY=0;entryDx=0;entryDy=0;" edge="1" parent="1" source="p7GltXDF2MTSe1q1npau-48" target="p7GltXDF2MTSe1q1npau-52">
          <mxGeometry relative="1" as="geometry" />
        </mxCell>
        <mxCell id="p7GltXDF2MTSe1q1npau-48" value="&lt;font style=&quot;font-size: 16px&quot;&gt;3&lt;/font&gt;" style="ellipse;whiteSpace=wrap;html=1;aspect=fixed;" vertex="1" parent="1">
          <mxGeometry x="120" y="440" width="80" height="80" as="geometry" />
        </mxCell>
        <mxCell id="p7GltXDF2MTSe1q1npau-49" value="&lt;font style=&quot;font-size: 16px&quot;&gt;9&lt;/font&gt;" style="ellipse;whiteSpace=wrap;html=1;aspect=fixed;" vertex="1" parent="1">
          <mxGeometry y="600" width="80" height="80" as="geometry" />
        </mxCell>
        <mxCell id="p7GltXDF2MTSe1q1npau-50" style="edgeStyle=orthogonalEdgeStyle;curved=1;rounded=0;orthogonalLoop=1;jettySize=auto;html=1;exitX=0.5;exitY=1;exitDx=0;exitDy=0;entryX=0.5;entryY=0;entryDx=0;entryDy=0;" edge="1" parent="1" source="p7GltXDF2MTSe1q1npau-52" target="p7GltXDF2MTSe1q1npau-53">
          <mxGeometry relative="1" as="geometry" />
        </mxCell>
        <mxCell id="p7GltXDF2MTSe1q1npau-51" style="edgeStyle=orthogonalEdgeStyle;curved=1;rounded=0;orthogonalLoop=1;jettySize=auto;html=1;exitX=0.5;exitY=1;exitDx=0;exitDy=0;entryX=0.5;entryY=0;entryDx=0;entryDy=0;" edge="1" parent="1" source="p7GltXDF2MTSe1q1npau-52" target="p7GltXDF2MTSe1q1npau-54">
          <mxGeometry relative="1" as="geometry" />
        </mxCell>
        <mxCell id="p7GltXDF2MTSe1q1npau-52" value="&lt;font style=&quot;font-size: 16px&quot;&gt;20&lt;/font&gt;" style="ellipse;whiteSpace=wrap;html=1;aspect=fixed;" vertex="1" parent="1">
          <mxGeometry x="240" y="600" width="80" height="80" as="geometry" />
        </mxCell>
        <mxCell id="p7GltXDF2MTSe1q1npau-53" value="&lt;font style=&quot;font-size: 16px&quot;&gt;15&lt;/font&gt;" style="ellipse;whiteSpace=wrap;html=1;aspect=fixed;" vertex="1" parent="1">
          <mxGeometry x="170" y="760" width="80" height="80" as="geometry" />
        </mxCell>
        <mxCell id="p7GltXDF2MTSe1q1npau-54" value="&lt;font style=&quot;font-size: 16px&quot;&gt;7&lt;/font&gt;" style="ellipse;whiteSpace=wrap;html=1;aspect=fixed;" vertex="1" parent="1">
          <mxGeometry x="330" y="760" width="80" height="80" as="geometry" />
        </mxCell>
        <mxCell id="p7GltXDF2MTSe1q1npau-55" value="&lt;font style=&quot;font-size: 16px&quot;&gt;第五步&lt;/font&gt;" style="text;html=1;strokeColor=none;fillColor=none;align=center;verticalAlign=middle;whiteSpace=wrap;rounded=0;" vertex="1" parent="1">
          <mxGeometry x="40" y="440" width="50" height="20" as="geometry" />
        </mxCell>
        <mxCell id="p7GltXDF2MTSe1q1npau-56" value="&lt;font style=&quot;font-size: 16px&quot;&gt;res = {{3}，{20}， {15}}&lt;/font&gt;" style="text;html=1;strokeColor=none;fillColor=none;align=center;verticalAlign=middle;whiteSpace=wrap;rounded=0;" vertex="1" parent="1">
          <mxGeometry x="230" y="440" width="170" height="20" as="geometry" />
        </mxCell>
        <mxCell id="p7GltXDF2MTSe1q1npau-57" value="" style="curved=1;endArrow=classic;html=1;strokeWidth=3;" edge="1" parent="1">
          <mxGeometry width="50" height="50" relative="1" as="geometry">
            <mxPoint x="230" y="650.0000000000002" as="sourcePoint" />
            <mxPoint x="170" y="750.0000000000002" as="targetPoint" />
            <Array as="points">
              <mxPoint x="160" y="680" />
            </Array>
          </mxGeometry>
        </mxCell>
        <mxCell id="p7GltXDF2MTSe1q1npau-58" style="edgeStyle=orthogonalEdgeStyle;curved=1;rounded=0;orthogonalLoop=1;jettySize=auto;html=1;exitX=0.5;exitY=1;exitDx=0;exitDy=0;" edge="1" parent="1" source="p7GltXDF2MTSe1q1npau-60" target="p7GltXDF2MTSe1q1npau-61">
          <mxGeometry relative="1" as="geometry" />
        </mxCell>
        <mxCell id="p7GltXDF2MTSe1q1npau-59" style="edgeStyle=orthogonalEdgeStyle;curved=1;rounded=0;orthogonalLoop=1;jettySize=auto;html=1;exitX=0.5;exitY=1;exitDx=0;exitDy=0;entryX=0.5;entryY=0;entryDx=0;entryDy=0;" edge="1" parent="1" source="p7GltXDF2MTSe1q1npau-60" target="p7GltXDF2MTSe1q1npau-64">
          <mxGeometry relative="1" as="geometry" />
        </mxCell>
        <mxCell id="p7GltXDF2MTSe1q1npau-60" value="&lt;font style=&quot;font-size: 16px&quot;&gt;3&lt;/font&gt;" style="ellipse;whiteSpace=wrap;html=1;aspect=fixed;" vertex="1" parent="1">
          <mxGeometry x="680" y="440" width="80" height="80" as="geometry" />
        </mxCell>
        <mxCell id="p7GltXDF2MTSe1q1npau-61" value="&lt;font style=&quot;font-size: 16px&quot;&gt;9&lt;/font&gt;" style="ellipse;whiteSpace=wrap;html=1;aspect=fixed;" vertex="1" parent="1">
          <mxGeometry x="560" y="600" width="80" height="80" as="geometry" />
        </mxCell>
        <mxCell id="p7GltXDF2MTSe1q1npau-62" style="edgeStyle=orthogonalEdgeStyle;curved=1;rounded=0;orthogonalLoop=1;jettySize=auto;html=1;exitX=0.5;exitY=1;exitDx=0;exitDy=0;entryX=0.5;entryY=0;entryDx=0;entryDy=0;" edge="1" parent="1" source="p7GltXDF2MTSe1q1npau-64" target="p7GltXDF2MTSe1q1npau-65">
          <mxGeometry relative="1" as="geometry" />
        </mxCell>
        <mxCell id="p7GltXDF2MTSe1q1npau-63" style="edgeStyle=orthogonalEdgeStyle;curved=1;rounded=0;orthogonalLoop=1;jettySize=auto;html=1;exitX=0.5;exitY=1;exitDx=0;exitDy=0;entryX=0.5;entryY=0;entryDx=0;entryDy=0;" edge="1" parent="1" source="p7GltXDF2MTSe1q1npau-64" target="p7GltXDF2MTSe1q1npau-66">
          <mxGeometry relative="1" as="geometry" />
        </mxCell>
        <mxCell id="p7GltXDF2MTSe1q1npau-64" value="&lt;font style=&quot;font-size: 16px&quot;&gt;20&lt;/font&gt;" style="ellipse;whiteSpace=wrap;html=1;aspect=fixed;" vertex="1" parent="1">
          <mxGeometry x="800" y="600" width="80" height="80" as="geometry" />
        </mxCell>
        <mxCell id="p7GltXDF2MTSe1q1npau-65" value="&lt;font style=&quot;font-size: 16px&quot;&gt;15&lt;/font&gt;" style="ellipse;whiteSpace=wrap;html=1;aspect=fixed;" vertex="1" parent="1">
          <mxGeometry x="730" y="760" width="80" height="80" as="geometry" />
        </mxCell>
        <mxCell id="p7GltXDF2MTSe1q1npau-66" value="&lt;font style=&quot;font-size: 16px&quot;&gt;7&lt;/font&gt;" style="ellipse;whiteSpace=wrap;html=1;aspect=fixed;" vertex="1" parent="1">
          <mxGeometry x="890" y="760" width="80" height="80" as="geometry" />
        </mxCell>
        <mxCell id="p7GltXDF2MTSe1q1npau-67" value="&lt;font style=&quot;font-size: 16px&quot;&gt;第六步&lt;/font&gt;" style="text;html=1;strokeColor=none;fillColor=none;align=center;verticalAlign=middle;whiteSpace=wrap;rounded=0;" vertex="1" parent="1">
          <mxGeometry x="600" y="440" width="50" height="20" as="geometry" />
        </mxCell>
        <mxCell id="p7GltXDF2MTSe1q1npau-68" value="&lt;font style=&quot;font-size: 16px&quot;&gt;res = {{3}，{20}}&lt;/font&gt;" style="text;html=1;strokeColor=none;fillColor=none;align=center;verticalAlign=middle;whiteSpace=wrap;rounded=0;" vertex="1" parent="1">
          <mxGeometry x="790" y="440" width="170" height="20" as="geometry" />
        </mxCell>
        <mxCell id="p7GltXDF2MTSe1q1npau-69" value="" style="endArrow=classic;html=1;strokeWidth=3;dashed=1;" edge="1" parent="1">
          <mxGeometry width="50" height="50" relative="1" as="geometry">
            <mxPoint x="770" y="840.0000000000002" as="sourcePoint" />
            <mxPoint x="770" y="900.0000000000002" as="targetPoint" />
          </mxGeometry>
        </mxCell>
        <mxCell id="p7GltXDF2MTSe1q1npau-70" value="&lt;font style=&quot;font-size: 16px&quot;&gt;NULL&lt;/font&gt;" style="text;html=1;strokeColor=none;fillColor=none;align=center;verticalAlign=middle;whiteSpace=wrap;rounded=0;" vertex="1" parent="1">
          <mxGeometry x="750" y="910" width="40" height="20" as="geometry" />
        </mxCell>
        <mxCell id="p7GltXDF2MTSe1q1npau-71" value="&lt;font style=&quot;font-size: 16px&quot;&gt;因为左右子树都为NULL，所以向上返回&lt;/font&gt;" style="text;html=1;strokeColor=none;fillColor=none;align=center;verticalAlign=middle;whiteSpace=wrap;rounded=0;" vertex="1" parent="1">
          <mxGeometry x="800" y="860" width="90" height="20" as="geometry" />
        </mxCell>
        <mxCell id="p7GltXDF2MTSe1q1npau-72" value="" style="curved=1;endArrow=classic;html=1;strokeWidth=3;" edge="1" parent="1">
          <mxGeometry width="50" height="50" relative="1" as="geometry">
            <mxPoint x="730" y="750.0000000000002" as="sourcePoint" />
            <mxPoint x="790" y="680.0000000000002" as="targetPoint" />
            <Array as="points">
              <mxPoint x="730" y="740" />
              <mxPoint x="740" y="690" />
            </Array>
          </mxGeometry>
        </mxCell>
        <mxCell id="p7GltXDF2MTSe1q1npau-73" value="" style="endArrow=none;dashed=1;html=1;strokeWidth=3;" edge="1" parent="1">
          <mxGeometry width="50" height="50" relative="1" as="geometry">
            <mxPoint y="960" as="sourcePoint" />
            <mxPoint x="1306.666666666667" y="960" as="targetPoint" />
          </mxGeometry>
        </mxCell>
        <mxCell id="p7GltXDF2MTSe1q1npau-74" style="edgeStyle=orthogonalEdgeStyle;curved=1;rounded=0;orthogonalLoop=1;jettySize=auto;html=1;exitX=0.5;exitY=1;exitDx=0;exitDy=0;" edge="1" parent="1" source="p7GltXDF2MTSe1q1npau-76" target="p7GltXDF2MTSe1q1npau-77">
          <mxGeometry relative="1" as="geometry" />
        </mxCell>
        <mxCell id="p7GltXDF2MTSe1q1npau-75" style="edgeStyle=orthogonalEdgeStyle;curved=1;rounded=0;orthogonalLoop=1;jettySize=auto;html=1;exitX=0.5;exitY=1;exitDx=0;exitDy=0;entryX=0.5;entryY=0;entryDx=0;entryDy=0;" edge="1" parent="1" source="p7GltXDF2MTSe1q1npau-76" target="p7GltXDF2MTSe1q1npau-80">
          <mxGeometry relative="1" as="geometry" />
        </mxCell>
        <mxCell id="p7GltXDF2MTSe1q1npau-76" value="&lt;font style=&quot;font-size: 16px&quot;&gt;3&lt;/font&gt;" style="ellipse;whiteSpace=wrap;html=1;aspect=fixed;" vertex="1" parent="1">
          <mxGeometry x="120" y="1000" width="80" height="80" as="geometry" />
        </mxCell>
        <mxCell id="p7GltXDF2MTSe1q1npau-77" value="&lt;font style=&quot;font-size: 16px&quot;&gt;9&lt;/font&gt;" style="ellipse;whiteSpace=wrap;html=1;aspect=fixed;" vertex="1" parent="1">
          <mxGeometry y="1160" width="80" height="80" as="geometry" />
        </mxCell>
        <mxCell id="p7GltXDF2MTSe1q1npau-78" style="edgeStyle=orthogonalEdgeStyle;curved=1;rounded=0;orthogonalLoop=1;jettySize=auto;html=1;exitX=0.5;exitY=1;exitDx=0;exitDy=0;entryX=0.5;entryY=0;entryDx=0;entryDy=0;" edge="1" parent="1" source="p7GltXDF2MTSe1q1npau-80" target="p7GltXDF2MTSe1q1npau-81">
          <mxGeometry relative="1" as="geometry" />
        </mxCell>
        <mxCell id="p7GltXDF2MTSe1q1npau-79" style="edgeStyle=orthogonalEdgeStyle;curved=1;rounded=0;orthogonalLoop=1;jettySize=auto;html=1;exitX=0.5;exitY=1;exitDx=0;exitDy=0;entryX=0.5;entryY=0;entryDx=0;entryDy=0;" edge="1" parent="1" source="p7GltXDF2MTSe1q1npau-80" target="p7GltXDF2MTSe1q1npau-82">
          <mxGeometry relative="1" as="geometry" />
        </mxCell>
        <mxCell id="p7GltXDF2MTSe1q1npau-80" value="&lt;font style=&quot;font-size: 16px&quot;&gt;20&lt;/font&gt;" style="ellipse;whiteSpace=wrap;html=1;aspect=fixed;" vertex="1" parent="1">
          <mxGeometry x="240" y="1160" width="80" height="80" as="geometry" />
        </mxCell>
        <mxCell id="p7GltXDF2MTSe1q1npau-81" value="&lt;font style=&quot;font-size: 16px&quot;&gt;15&lt;/font&gt;" style="ellipse;whiteSpace=wrap;html=1;aspect=fixed;" vertex="1" parent="1">
          <mxGeometry x="170" y="1320" width="80" height="80" as="geometry" />
        </mxCell>
        <mxCell id="p7GltXDF2MTSe1q1npau-82" value="&lt;font style=&quot;font-size: 16px&quot;&gt;7&lt;/font&gt;" style="ellipse;whiteSpace=wrap;html=1;aspect=fixed;" vertex="1" parent="1">
          <mxGeometry x="330" y="1320" width="80" height="80" as="geometry" />
        </mxCell>
        <mxCell id="p7GltXDF2MTSe1q1npau-83" value="&lt;font style=&quot;font-size: 16px&quot;&gt;第六步&lt;/font&gt;" style="text;html=1;strokeColor=none;fillColor=none;align=center;verticalAlign=middle;whiteSpace=wrap;rounded=0;" vertex="1" parent="1">
          <mxGeometry x="40" y="1000" width="50" height="20" as="geometry" />
        </mxCell>
        <mxCell id="p7GltXDF2MTSe1q1npau-84" value="&lt;font style=&quot;font-size: 16px&quot;&gt;res = {{3}，{20}}&lt;/font&gt;" style="text;html=1;strokeColor=none;fillColor=none;align=center;verticalAlign=middle;whiteSpace=wrap;rounded=0;" vertex="1" parent="1">
          <mxGeometry x="230" y="1000" width="170" height="20" as="geometry" />
        </mxCell>
        <mxCell id="p7GltXDF2MTSe1q1npau-85" value="" style="endArrow=classic;html=1;strokeWidth=3;dashed=1;" edge="1" parent="1">
          <mxGeometry width="50" height="50" relative="1" as="geometry">
            <mxPoint x="210" y="1400" as="sourcePoint" />
            <mxPoint x="210" y="1460" as="targetPoint" />
          </mxGeometry>
        </mxCell>
        <mxCell id="p7GltXDF2MTSe1q1npau-86" value="&lt;font style=&quot;font-size: 16px&quot;&gt;NULL&lt;/font&gt;" style="text;html=1;strokeColor=none;fillColor=none;align=center;verticalAlign=middle;whiteSpace=wrap;rounded=0;" vertex="1" parent="1">
          <mxGeometry x="190" y="1470" width="40" height="20" as="geometry" />
        </mxCell>
        <mxCell id="p7GltXDF2MTSe1q1npau-87" value="&lt;font style=&quot;font-size: 16px&quot;&gt;因为左右子树都为NULL，所以向上返回&lt;/font&gt;" style="text;html=1;strokeColor=none;fillColor=none;align=center;verticalAlign=middle;whiteSpace=wrap;rounded=0;" vertex="1" parent="1">
          <mxGeometry x="240" y="1420" width="90" height="20" as="geometry" />
        </mxCell>
        <mxCell id="p7GltXDF2MTSe1q1npau-89" value="" style="curved=1;endArrow=classic;html=1;strokeWidth=3;" edge="1" parent="1">
          <mxGeometry width="50" height="50" relative="1" as="geometry">
            <mxPoint x="340" y="1220" as="sourcePoint" />
            <mxPoint x="400" y="1305" as="targetPoint" />
            <Array as="points">
              <mxPoint x="370" y="1230" />
              <mxPoint x="400" y="1255" />
            </Array>
          </mxGeometry>
        </mxCell>
      </root>
    </mxGraphModel>
  </diagram>
</mxfile>
